<svg xmlns="http://www.w3.org/2000/svg" xmlns:xlink="http://www.w3.org/1999/xlink" width="320" height="320" viewBox="0 0 320 320"><defs><path id="a" d="M82.5,0 L12.375,0 C5.56875,0 0,5.61477272 0,12.4772727 L0,170.522727 C0,177.385227 5.56875,183 12.375,183 L119.625,183 C126.43125,183 132,177.385227 132,170.522727 L132,49.9090908 L82.5,0 Z"/><path id="c" d="M82.5,0 L12.375,0 C5.56875,0 0,5.61477272 0,12.4772727 L0,170.522727 C0,177.385227 5.56875,183 12.375,183 L119.625,183 C126.43125,183 132,177.385227 132,170.522727 L132,49.9090908 L82.5,0 Z"/><path id="f" d="M82.5,0 L12.375,0 C5.56875,0 0,5.61477272 0,12.4772727 L0,170.522727 C0,177.385227 5.56875,183 12.375,183 L119.625,183 C126.43125,183 132,177.385227 132,170.522727 L132,49.9090908 L82.5,0 Z"/><path id="h" d="M82.5,0 L12.375,0 C5.56875,0 0,5.61477272 0,12.4772727 L0,170.522727 C0,177.385227 5.56875,183 12.375,183 L119.625,183 C126.43125,183 132,177.385227 132,170.522727 L132,49.9090908 L82.5,0 Z"/><path id="j" d="M82.5,0 L12.375,0 C5.56875,0 0,5.61477272 0,12.4772727 L0,170.522727 C0,177.385227 5.56875,183 12.375,183 L119.625,183 C126.43125,183 132,177.385227 132,170.522727 L132,49.9090908 L82.5,0 Z"/><path id="l" d="M82.5,0 L12.375,0 C5.56875,0 0,5.61477272 0,12.4772727 L0,170.522727 C0,177.385227 5.56875,183 12.375,183 L119.625,183 C126.43125,183 132,177.385227 132,170.522727 L132,49.9090908 L82.5,0 Z"/><path id="n" d="M82.5,0 L12.375,0 C5.56875,0 0,5.61477272 0,12.4772727 L0,170.522727 C0,177.385227 5.56875,183 12.375,183 L119.625,183 C126.43125,183 132,177.385227 132,170.522727 L132,49.9090908 L82.5,0 Z"/><radialGradient id="p" cx="3.168%" cy="2.717%" r="161.249%" fx="3.168%" fy="2.717%" gradientTransform="matrix(1 0 0 .7213 0 .008)"><stop offset="0%" stop-color="#FFF" stop-opacity=".1"/><stop offset="100%" stop-color="#FFF" stop-opacity="0"/></radialGradient><linearGradient id="d" x1="50.005%" x2="50.005%" y1="8.586%" y2="100.014%"><stop offset="0%" stop-color="#1A237E" stop-opacity=".2"/><stop offset="100%" stop-color="#1A237E" stop-opacity=".02"/></linearGradient></defs><g fill="none" fill-rule="evenodd"><rect width="320" height="320"/><path fill="#FFF" d="M271.629531,36.2741233 C276.844346,39.0630367 280.936963,43.1556539 283.725877,48.3704687 C286.51479,53.5852836 288,58.7578634 288,73.0221632 L288,246.977837 C288,261.242137 286.51479,266.414716 283.725877,271.629531 C280.936963,276.844346 276.844346,280.936963 271.629531,283.725877 C266.414716,286.51479 261.242137,288 246.977837,288 L73.0221632,288 C58.7578634,288 53.5852836,286.51479 48.3704687,283.725877 C43.1556539,280.936963 39.0630367,276.844346 36.2741233,271.629531 C33.5250514,266.489214 32.0427006,261.389933 32.0009088,247.583624 L32,73.0221632 C32,58.7578634 33.4852098,53.5852836 36.2741233,48.3704687 C39.0630367,43.1556539 43.1556539,39.0630367 48.3704687,36.2741233 C53.5107862,33.5250514 58.6100667,32.0427006 72.4163758,32.0009088 L246.977837,32 C261.242137,32 266.414716,33.4852098 271.629531,36.2741233 Z M249.771512,40.0009593 L70.2284881,40.0009593 C59.9368822,40.0380405 56.1226726,41.1493596 52.2778516,43.2055924 C48.3667404,45.2972776 45.2972776,48.3667404 43.2055924,52.2778516 C41.1139073,56.1889627 40,60.0683975 40,70.7666224 L40.0009593,249.771512 C40.0380405,260.063118 41.1493596,263.877327 43.2055924,267.722148 C45.2972776,271.63326 48.3667404,274.702722 52.2778516,276.794408 C56.1889627,278.886093 60.0683975,280 70.7666224,280 L249.233378,280 C259.931602,280 263.811037,278.886093 267.722148,276.794408 C271.63326,274.702722 274.702722,271.63326 276.794408,267.722148 C278.886093,263.811037 280,259.931602 280,249.233378 L280,70.7666224 C280,60.0683975 278.886093,56.1889627 276.794408,52.2778516 C274.702722,48.3667404 271.63326,45.2972776 267.722148,43.2055924 C263.811037,41.1139073 259.931602,40 249.233378,40 Z" opacity=".2"/><path fill="#FFF" d="M70.7666224,40 L249.233378,40 C259.931602,40 263.811037,41.1139073 267.722148,43.2055924 C271.63326,45.2972776 274.702722,48.3667404 276.794408,52.2778516 C278.886093,56.1889627 280,60.0683975 280,70.7666224 L280,249.233378 C280,259.931602 278.886093,263.811037 276.794408,267.722148 C274.702722,271.63326 271.63326,274.702722 267.722148,276.794408 C263.811037,278.886093 259.931602,280 249.233378,280 L70.7666224,280 C60.0683975,280 56.1889627,278.886093 52.2778516,276.794408 C48.3667404,274.702722 45.2972776,271.63326 43.2055924,267.722148 C41.1139073,263.811037 40,259.931602 40,249.233378 L40,70.7666224 C40,60.0683975 41.1139073,56.1889627 43.2055924,52.2778516 C45.2972776,48.3667404 48.3667404,45.2972776 52.2778516,43.2055924 C56.1889627,41.1139073 60.0683975,40 70.7666224,40 Z" opacity=".1"/><g transform="translate(94 68)"><mask id="b" fill="#fff"><use xlink:href="#a"/></mask><path fill="#4285F4" fill-rule="nonzero" d="M82.5,0 L12.375,0 C5.56875,0 0,5.61477272 0,12.4772727 L0,170.522727 C0,177.385227 5.56875,183 12.375,183 L119.625,183 C126.43125,183 132,177.385227 132,170.522727 L132,49.9090908 L103.125,29.1136364 L82.5,0 Z" mask="url(#b)"/><mask id="e" fill="#fff"><use xlink:href="#c"/></mask><polygon fill="url(#d)" fill-rule="nonzero" points="86.12 46.259 132 92.509 132 49.909" mask="url(#e)"/><mask id="g" fill="#fff"><use xlink:href="#f"/></mask><path fill="#F1F1F1" fill-rule="nonzero" d="M33,133.090909 L99,133.090909 L99,124.772727 L33,124.772727 L33,133.090909 Z M33,149.727273 L82.5,149.727273 L82.5,141.409091 L33,141.409091 L33,149.727273 Z M33,91.5 L33,99.8181819 L99,99.8181819 L99,91.5 L33,91.5 Z M33,116.454546 L99,116.454546 L99,108.136364 L33,108.136364 L33,116.454546 Z" mask="url(#g)"/><mask id="i" fill="#fff"><use xlink:href="#h"/></mask><g mask="url(#i)"><path fill="#A1C2FA" fill-rule="nonzero" d="M0,1.25028193e-15 L0,37.4318182 C0,44.3255112 5.53781251,49.909091 12.375,49.909091 L49.5,49.909091 L0,1.25028193e-15 Z" transform="translate(82.5)"/></g><mask id="k" fill="#fff"><use xlink:href="#j"/></mask><path fill="#FFF" fill-opacity=".2" fill-rule="nonzero" d="M12.375,0 C5.56875,0 0,5.61477272 0,12.4772727 L0,13.5170454 C0,6.65454544 5.56875,1.03977273 12.375,1.03977273 L82.5,1.03977273 L82.5,0 L12.375,0 Z" mask="url(#k)"/><mask id="m" fill="#fff"><use xlink:href="#l"/></mask><path fill="#1A237E" fill-opacity=".2" fill-rule="nonzero" d="M119.625,181.960227 L12.375,181.960227 C5.56875,181.960227 0,176.345454 0,169.482954 L0,170.522727 C0,177.385227 5.56875,183 12.375,183 L119.625,183 C126.43125,183 132,177.385227 132,170.522727 L132,169.482954 C132,176.345454 126.43125,181.960227 119.625,181.960227 Z" mask="url(#m)"/><mask id="o" fill="#fff"><use xlink:href="#n"/></mask><path fill="#1A237E" fill-opacity=".1" fill-rule="nonzero" d="M94.875,49.9090908 C88.0378126,49.9090908 82.5,44.3255114 82.5,37.4318181 L82.5,38.4715908 C82.5,45.3652842 88.0378126,50.9488636 94.875,50.9488636 L132,50.9488636 L132,49.9090908 L94.875,49.9090908 Z" mask="url(#o)"/><path fill="url(#p)" fill-rule="nonzero" d="M82.5,0 L12.375,0 C5.56875,0 0,5.61477272 0,12.4772727 L0,170.522727 C0,177.385227 5.56875,183 12.375,183 L119.625,183 C126.43125,183 132,177.385227 132,170.522727 L132,49.9090908 L82.5,0 Z"/></g></g></svg>