<svg xmlns="http://www.w3.org/2000/svg" xmlns:xlink="http://www.w3.org/1999/xlink" width="320" height="320" viewBox="0 0 320 320"><defs><path id="a" d="M83.125,0 L12.46875,0 C5.6109375,0 0,5.61477273 0,12.4772727 L0,170.522727 C0,177.385227 5.6109375,183 12.46875,183 L120.53125,183 C127.389062,183 133,177.385227 133,170.522727 L133,49.9090909 L83.125,0 Z"/><path id="c" d="M83.125,0 L12.46875,0 C5.6109375,0 0,5.61477273 0,12.4772727 L0,170.522727 C0,177.385227 5.6109375,183 12.46875,183 L120.53125,183 C127.389062,183 133,177.385227 133,170.522727 L133,49.9090909 L83.125,0 Z"/><path id="e" d="M83.125,0 L12.46875,0 C5.6109375,0 0,5.61477273 0,12.4772727 L0,170.522727 C0,177.385227 5.6109375,183 12.46875,183 L120.53125,183 C127.389062,183 133,177.385227 133,170.522727 L133,49.9090909 L83.125,0 Z"/><path id="h" d="M83.125,0 L12.46875,0 C5.6109375,0 0,5.61477273 0,12.4772727 L0,170.522727 C0,177.385227 5.6109375,183 12.46875,183 L120.53125,183 C127.389062,183 133,177.385227 133,170.522727 L133,49.9090909 L83.125,0 Z"/><path id="j" d="M83.125,0 L12.46875,0 C5.6109375,0 0,5.61477273 0,12.4772727 L0,170.522727 C0,177.385227 5.6109375,183 12.46875,183 L120.53125,183 C127.389062,183 133,177.385227 133,170.522727 L133,49.9090909 L83.125,0 Z"/><path id="l" d="M83.125,0 L12.46875,0 C5.6109375,0 0,5.61477273 0,12.4772727 L0,170.522727 C0,177.385227 5.6109375,183 12.46875,183 L120.53125,183 C127.389062,183 133,177.385227 133,170.522727 L133,49.9090909 L83.125,0 Z"/><path id="n" d="M83.125,0 L12.46875,0 C5.6109375,0 0,5.61477273 0,12.4772727 L0,170.522727 C0,177.385227 5.6109375,183 12.46875,183 L120.53125,183 C127.389062,183 133,177.385227 133,170.522727 L133,49.9090909 L83.125,0 Z"/><radialGradient id="p" cx="3.168%" cy="2.717%" r="161.249%" fx="3.168%" fy="2.717%" gradientTransform="matrix(1 0 0 .7268 0 .007)"><stop offset="0%" stop-color="#FFF" stop-opacity=".1"/><stop offset="100%" stop-color="#FFF" stop-opacity="0"/></radialGradient><linearGradient id="f" x1="50.005%" x2="50.005%" y1="8.586%" y2="100.014%"><stop offset="0%" stop-color="#263238" stop-opacity=".2"/><stop offset="100%" stop-color="#263238" stop-opacity=".02"/></linearGradient></defs><g fill="none" fill-rule="evenodd"><rect width="320" height="320"/><path fill="#FFF" d="M271.629531,36.2741233 C276.844346,39.0630367 280.936963,43.1556539 283.725877,48.3704687 C286.51479,53.5852836 288,58.7578634 288,73.0221632 L288,246.977837 C288,261.242137 286.51479,266.414716 283.725877,271.629531 C280.936963,276.844346 276.844346,280.936963 271.629531,283.725877 C266.414716,286.51479 261.242137,288 246.977837,288 L73.0221632,288 C58.7578634,288 53.5852836,286.51479 48.3704687,283.725877 C43.1556539,280.936963 39.0630367,276.844346 36.2741233,271.629531 C33.5250514,266.489214 32.0427006,261.389933 32.0009088,247.583624 L32,73.0221632 C32,58.7578634 33.4852098,53.5852836 36.2741233,48.3704687 C39.0630367,43.1556539 43.1556539,39.0630367 48.3704687,36.2741233 C53.5107862,33.5250514 58.6100667,32.0427006 72.4163758,32.0009088 L246.977837,32 C261.242137,32 266.414716,33.4852098 271.629531,36.2741233 Z M249.771512,40.0009593 L70.2284881,40.0009593 C59.9368822,40.0380405 56.1226726,41.1493596 52.2778516,43.2055924 C48.3667404,45.2972776 45.2972776,48.3667404 43.2055924,52.2778516 C41.1139073,56.1889627 40,60.0683975 40,70.7666224 L40.0009593,249.771512 C40.0380405,260.063118 41.1493596,263.877327 43.2055924,267.722148 C45.2972776,271.63326 48.3667404,274.702722 52.2778516,276.794408 C56.1889627,278.886093 60.0683975,280 70.7666224,280 L249.233378,280 C259.931602,280 263.811037,278.886093 267.722148,276.794408 C271.63326,274.702722 274.702722,271.63326 276.794408,267.722148 C278.886093,263.811037 280,259.931602 280,249.233378 L280,70.7666224 C280,60.0683975 278.886093,56.1889627 276.794408,52.2778516 C274.702722,48.3667404 271.63326,45.2972776 267.722148,43.2055924 C263.811037,41.1139073 259.931602,40 249.233378,40 Z" opacity=".2"/><path fill="#FFF" d="M70.7666224,40 L249.233378,40 C259.931602,40 263.811037,41.1139073 267.722148,43.2055924 C271.63326,45.2972776 274.702722,48.3667404 276.794408,52.2778516 C278.886093,56.1889627 280,60.0683975 280,70.7666224 L280,249.233378 C280,259.931602 278.886093,263.811037 276.794408,267.722148 C274.702722,271.63326 271.63326,274.702722 267.722148,276.794408 C263.811037,278.886093 259.931602,280 249.233378,280 L70.7666224,280 C60.0683975,280 56.1889627,278.886093 52.2778516,276.794408 C48.3667404,274.702722 45.2972776,271.63326 43.2055924,267.722148 C41.1139073,263.811037 40,259.931602 40,249.233378 L40,70.7666224 C40,60.0683975 41.1139073,56.1889627 43.2055924,52.2778516 C45.2972776,48.3667404 48.3667404,45.2972776 52.2778516,43.2055924 C56.1889627,41.1139073 60.0683975,40 70.7666224,40 Z" opacity=".1"/><g transform="translate(94 68)"><mask id="b" fill="#fff"><use xlink:href="#a"/></mask><path fill="#0F9D58" fill-rule="nonzero" d="M83.125,0 L12.46875,0 C5.6109375,0 0,5.61477273 0,12.4772727 L0,170.522727 C0,177.385227 5.6109375,183 12.46875,183 L120.53125,183 C127.389062,183 133,177.385227 133,170.522727 L133,49.9090909 L103.90625,29.1136365 L83.125,0 Z" mask="url(#b)"/><mask id="d" fill="#fff"><use xlink:href="#c"/></mask><path fill="#F1F1F1" fill-rule="nonzero" d="M33.2499999,89.4204545 L33.2499999,149.727273 L99.7499999,149.727273 L99.7499999,89.4204545 L33.2499999,89.4204545 Z M62.34375,141.409091 L41.5625001,141.409091 L41.5625001,131.011364 L62.34375,131.011364 L62.34375,141.409091 Z M62.34375,124.772727 L41.5625001,124.772727 L41.5625001,114.375 L62.34375,114.375 L62.34375,124.772727 Z M62.34375,108.136364 L41.5625001,108.136364 L41.5625001,97.7386365 L62.34375,97.7386365 L62.34375,108.136364 Z M91.4375002,141.409091 L70.65625,141.409091 L70.65625,131.011364 L91.4375002,131.011364 L91.4375002,141.409091 Z M91.4375002,124.772727 L70.65625,124.772727 L70.65625,114.375 L91.4375002,114.375 L91.4375002,124.772727 Z M91.4375002,108.136364 L70.65625,108.136364 L70.65625,97.7386365 L91.4375002,97.7386365 L91.4375002,108.136364 Z" mask="url(#d)"/><mask id="g" fill="#fff"><use xlink:href="#e"/></mask><polygon fill="url(#f)" fill-rule="nonzero" points="86.772 46.259 133 92.509 133 49.909" mask="url(#g)"/><mask id="i" fill="#fff"><use xlink:href="#h"/></mask><g mask="url(#i)"><path fill="#87CEAC" fill-rule="nonzero" d="M-1.24782813e-15,-1.24868106e-15 L-1.24782813e-15,37.4318181 C-1.24782813e-15,44.3255114 5.57976563,49.9090909 12.46875,49.9090909 L49.875,49.9090909 L-1.24782813e-15,-1.24868106e-15 Z" transform="translate(83.125)"/></g><mask id="k" fill="#fff"><use xlink:href="#j"/></mask><path fill="#FFF" fill-opacity=".2" fill-rule="nonzero" d="M12.46875,0 C5.6109375,0 0,5.61477273 0,12.4772727 L0,13.5170455 C0,6.65454547 5.6109375,1.03977273 12.46875,1.03977273 L83.125,1.03977273 L83.125,0 L12.46875,0 Z" mask="url(#k)"/><mask id="m" fill="#fff"><use xlink:href="#l"/></mask><path fill="#263238" fill-opacity=".2" fill-rule="nonzero" d="M120.53125,181.960227 L12.46875,181.960227 C5.6109375,181.960227 0,176.345455 0,169.482955 L0,170.522727 C0,177.385227 5.6109375,183 12.46875,183 L120.53125,183 C127.389062,183 133,177.385227 133,170.522727 L133,169.482955 C133,176.345455 127.389062,181.960227 120.53125,181.960227 Z" mask="url(#m)"/><mask id="o" fill="#fff"><use xlink:href="#n"/></mask><path fill="#263238" fill-opacity=".1" fill-rule="nonzero" d="M95.59375,49.9090909 C88.7047657,49.9090909 83.125,44.3255115 83.125,37.4318182 L83.125,38.471591 C83.125,45.3652841 88.7047657,50.9488638 95.59375,50.9488638 L133,50.9488638 L133,49.9090909 L95.59375,49.9090909 Z" mask="url(#o)"/><path fill="url(#p)" fill-rule="nonzero" d="M83.125,0 L12.46875,0 C5.6109375,0 0,5.61477273 0,12.4772727 L0,170.522727 C0,177.385227 5.6109375,183 12.46875,183 L120.53125,183 C127.389062,183 133,177.385227 133,170.522727 L133,49.9090909 L83.125,0 Z"/></g></g></svg>