<svg xmlns="http://www.w3.org/2000/svg" width="320" height="320" viewBox="0 0 320 320"><g fill="none" fill-rule="evenodd"><rect width="320" height="320"/><path fill="#FFF" d="M271.629531,36.2741233 C276.844346,39.0630367 280.936963,43.1556539 283.725877,48.3704687 C286.51479,53.5852836 288,58.7578634 288,73.0221632 L288,246.977837 C288,261.242137 286.51479,266.414716 283.725877,271.629531 C280.936963,276.844346 276.844346,280.936963 271.629531,283.725877 C266.414716,286.51479 261.242137,288 246.977837,288 L73.0221632,288 C58.7578634,288 53.5852836,286.51479 48.3704687,283.725877 C43.1556539,280.936963 39.0630367,276.844346 36.2741233,271.629531 C33.5250514,266.489214 32.0427006,261.389933 32.0009088,247.583624 L32,73.0221632 C32,58.7578634 33.4852098,53.5852836 36.2741233,48.3704687 C39.0630367,43.1556539 43.1556539,39.0630367 48.3704687,36.2741233 C53.5107862,33.5250514 58.6100667,32.0427006 72.4163758,32.0009088 L246.977837,32 C261.242137,32 266.414716,33.4852098 271.629531,36.2741233 Z M249.771512,40.0009593 L70.2284881,40.0009593 C59.9368822,40.0380405 56.1226726,41.1493596 52.2778516,43.2055924 C48.3667404,45.2972776 45.2972776,48.3667404 43.2055924,52.2778516 C41.1139073,56.1889627 40,60.0683975 40,70.7666224 L40.0009593,249.771512 C40.0380405,260.063118 41.1493596,263.877327 43.2055924,267.722148 C45.2972776,271.63326 48.3667404,274.702722 52.2778516,276.794408 C56.1889627,278.886093 60.0683975,280 70.7666224,280 L249.233378,280 C259.931602,280 263.811037,278.886093 267.722148,276.794408 C271.63326,274.702722 274.702722,271.63326 276.794408,267.722148 C278.886093,263.811037 280,259.931602 280,249.233378 L280,70.7666224 C280,60.0683975 278.886093,56.1889627 276.794408,52.2778516 C274.702722,48.3667404 271.63326,45.2972776 267.722148,43.2055924 C263.811037,41.1139073 259.931602,40 249.233378,40 Z" opacity=".2"/><path fill="#FFF" d="M70.7666224,40 L249.233378,40 C259.931602,40 263.811037,41.1139073 267.722148,43.2055924 C271.63326,45.2972776 274.702722,48.3667404 276.794408,52.2778516 C278.886093,56.1889627 280,60.0683975 280,70.7666224 L280,249.233378 C280,259.931602 278.886093,263.811037 276.794408,267.722148 C274.702722,271.63326 271.63326,274.702722 267.722148,276.794408 C263.811037,278.886093 259.931602,280 249.233378,280 L70.7666224,280 C60.0683975,280 56.1889627,278.886093 52.2778516,276.794408 C48.3667404,274.702722 45.2972776,271.63326 43.2055924,267.722148 C41.1139073,263.811037 40,259.931602 40,249.233378 L40,70.7666224 C40,60.0683975 41.1139073,56.1889627 43.2055924,52.2778516 C45.2972776,48.3667404 48.3667404,45.2972776 52.2778516,43.2055924 C56.1889627,41.1139073 60.0683975,40 70.7666224,40 Z" opacity=".1"/><g fill-rule="nonzero" transform="translate(75 84)"><path fill="#0066DA" d="M12.8522337,130.271795 L20.34937,143.230769 C21.9072165,145.958974 24.1466208,148.102564 26.7754868,149.661538 L53.5509737,103.282051 L0,103.282051 C0,106.302564 0.778923253,109.323077 2.33676976,112.051282 L12.8522337,130.271795 Z"/><path fill="#00AC47" d="M85,48.7179487 L58.2245132,2.33846154 C55.5956472,3.8974359 53.3562428,6.04102564 51.7983963,8.76923077 L2.33676976,94.5128205 C0.807573996,97.18219 0.00203603321,100.205144 0,103.282051 L53.5509737,103.282051 L85,48.7179487 Z"/><path fill="#EA4335" d="M143.224513,149.661538 C145.853379,148.102564 148.092784,145.958974 149.65063,143.230769 L152.766323,137.871795 L167.66323,112.051282 C169.221077,109.323077 170,106.302564 170,103.282051 L116.445132,103.282051 L127.840779,125.692308 L143.224513,149.661538 Z"/><path fill="#00832D" d="M85,48.7179487 L111.775487,2.33846154 C109.146621,0.779487179 106.128293,0 103.0126,0 L66.9873998,0 C63.8717068,0 60.8533792,0.876923077 58.2245132,2.33846154 L85,48.7179487 Z"/><path fill="#2684FC" d="M116.449026,103.282051 L53.5509737,103.282051 L26.7754868,149.661538 C29.4043528,151.220513 32.4226804,152 35.5383734,152 L134.461627,152 C137.57732,152 140.595647,151.123077 143.224513,149.661538 L116.449026,103.282051 Z"/><path fill="#FFBA00" d="M142.932417,51.6410256 L118.201604,8.76923077 C116.643757,6.04102564 114.404353,3.8974359 111.775487,2.33846154 L85,48.7179487 L116.449026,103.282051 L169.902635,103.282051 C169.902635,100.261538 169.123711,97.2410256 167.565865,94.5128205 L142.932417,51.6410256 Z"/></g></g></svg>