<svg xmlns="http://www.w3.org/2000/svg" width="320" height="320" viewBox="0 0 320 320"><g fill="none" fill-rule="evenodd"><rect width="320" height="320"/><path fill="#FFF" d="M271.629531,36.2741233 C276.844346,39.0630367 280.936963,43.1556539 283.725877,48.3704687 C286.51479,53.5852836 288,58.7578634 288,73.0221632 L288,246.977837 C288,261.242137 286.51479,266.414716 283.725877,271.629531 C280.936963,276.844346 276.844346,280.936963 271.629531,283.725877 C266.414716,286.51479 261.242137,288 246.977837,288 L73.0221632,288 C58.7578634,288 53.5852836,286.51479 48.3704687,283.725877 C43.1556539,280.936963 39.0630367,276.844346 36.2741233,271.629531 C33.5250514,266.489214 32.0427006,261.389933 32.0009088,247.583624 L32,73.0221632 C32,58.7578634 33.4852098,53.5852836 36.2741233,48.3704687 C39.0630367,43.1556539 43.1556539,39.0630367 48.3704687,36.2741233 C53.5107862,33.5250514 58.6100667,32.0427006 72.4163758,32.0009088 L246.977837,32 C261.242137,32 266.414716,33.4852098 271.629531,36.2741233 Z M249.771512,40.0009593 L70.2284881,40.0009593 C59.9368822,40.0380405 56.1226726,41.1493596 52.2778516,43.2055924 C48.3667404,45.2972776 45.2972776,48.3667404 43.2055924,52.2778516 C41.1139073,56.1889627 40,60.0683975 40,70.7666224 L40.0009593,249.771512 C40.0380405,260.063118 41.1493596,263.877327 43.2055924,267.722148 C45.2972776,271.63326 48.3667404,274.702722 52.2778516,276.794408 C56.1889627,278.886093 60.0683975,280 70.7666224,280 L249.233378,280 C259.931602,280 263.811037,278.886093 267.722148,276.794408 C271.63326,274.702722 274.702722,271.63326 276.794408,267.722148 C278.886093,263.811037 280,259.931602 280,249.233378 L280,70.7666224 C280,60.0683975 278.886093,56.1889627 276.794408,52.2778516 C274.702722,48.3667404 271.63326,45.2972776 267.722148,43.2055924 C263.811037,41.1139073 259.931602,40 249.233378,40 Z" opacity=".2"/><path fill="#FFF" d="M70.7666224,40 L249.233378,40 C259.931602,40 263.811037,41.1139073 267.722148,43.2055924 C271.63326,45.2972776 274.702722,48.3667404 276.794408,52.2778516 C278.886093,56.1889627 280,60.0683975 280,70.7666224 L280,249.233378 C280,259.931602 278.886093,263.811037 276.794408,267.722148 C274.702722,271.63326 271.63326,274.702722 267.722148,276.794408 C263.811037,278.886093 259.931602,280 249.233378,280 L70.7666224,280 C60.0683975,280 56.1889627,278.886093 52.2778516,276.794408 C48.3667404,274.702722 45.2972776,271.63326 43.2055924,267.722148 C41.1139073,263.811037 40,259.931602 40,249.233378 L40,70.7666224 C40,60.0683975 41.1139073,56.1889627 43.2055924,52.2778516 C45.2972776,48.3667404 48.3667404,45.2972776 52.2778516,43.2055924 C56.1889627,41.1139073 60.0683975,40 70.7666224,40 Z" opacity=".1"/><g fill-rule="nonzero" transform="translate(77 68)"><path fill="#E2E5E7" d="M28,0 C21.7142857,0 16.5714286,5.146875 16.5714286,11.4375 L16.5714286,171.5625 C16.5714286,177.853125 21.7142857,183 28,183 L137.571429,183 C143.857143,183 149,177.853125 149,171.5625 L149,49.75 L99.2857143,0 L28,0 Z"/><path fill="#B0B7BD" d="M111.704583,49.7142857 L148.961191,49.7142857 L99.2857143,0 L99.2857143,37.2857143 C99.2857143,44.1214286 104.874205,49.7142857 111.704583,49.7142857 Z"/><path fill="#CAD1D8" d="M148.671797,91.7142857 L104.064469,47.0665771 C106.175176,48.7236207 108.829892,49.7142857 111.704583,49.7142857 L148.671797,49.7142857 L148.671797,91.7142857 Z"/><path fill="#F15642" d="M137.142857,148.6875 C137.142857,151.832812 134.571429,154.40625 131.428571,154.40625 L5.71428571,154.40625 C2.57142857,154.40625 0,151.832812 0,148.6875 L0,91.5 C0,88.3546875 2.57142857,85.78125 5.71428571,85.78125 L131.428571,85.78125 C134.571429,85.78125 137.142857,88.3546875 137.142857,91.5 L137.142857,148.6875 Z"/><path fill="#FFF" d="M0 3.15675C0 1.647 1.18857143 0 3.10285714 0L13.6571429 0C19.6 0 24.9485714 3.98025 24.9485714 11.6090625 24.9485714 18.8375625 19.6 22.8635625 13.6571429 22.8635625L6.02857143 22.8635625 6.02857143 28.9025625C6.02857143 30.9155625 4.74857143 32.0535937 3.10285714 32.0535937 1.59428571 32.0535937 0 30.9155625 0 28.9025625L0 3.15675 0 3.15675ZM6.02857143 5.75878125 6.02857143 17.1505313 13.6571429 17.1505313C16.72 17.1505313 19.1428571 14.4455625 19.1428571 11.6090625 19.1428571 8.41228125 16.72 5.75878125 13.6571429 5.75878125L6.02857143 5.75878125ZM33.8971429 32.0535938C32.3885714 32.0535938 30.7428571 31.2300938 30.7428571 29.2228125L30.7428571 3.24825C30.7428571 1.60696875 32.3885714.41175 33.8971429.41175L44.36.41175C65.24.41175 64.7828571 32.0535938 44.7714286 32.0535938L33.8971429 32.0535938 33.8971429 32.0535938ZM36.7771429 5.99325 36.7771429 26.4778125 44.36 26.4778125C56.6971429 26.4778125 57.2457143 5.99325 44.36 5.99325L36.7771429 5.99325 36.7771429 5.99325ZM72.1885714 6.35925 72.1885714 13.6277812 83.84 13.6277812C85.4857143 13.6277812 87.1314286 15.2747812 87.1314286 16.8703125 87.1314286 18.3800625 85.4857143 19.6153125 83.84 19.6153125L72.1885714 19.6153125 72.1885714 29.2170937C72.1885714 30.8183437 71.0514286 32.047875 69.4514286 32.047875 67.44 32.047875 66.2114286 30.8183437 66.2114286 29.2170937L66.2114286 3.24253125C66.2114286 1.60125 67.4457143.40603125 69.4514286.40603125L85.4914286.40603125C87.5028571.40603125 88.6914286 1.60125 88.6914286 3.24253125 88.6914286 4.70653125 87.5028571 6.35353125 85.4914286 6.35353125L72.1885714 6.35353125 72.1885714 6.35925Z" transform="translate(24.909 105.196)"/><path fill="#CAD1D8" d="M131.428571,154.40625 L16.5714286,154.40625 L16.5714286,160.125 L131.428571,160.125 C134.571429,160.125 137.142857,157.551562 137.142857,154.40625 L137.142857,148.6875 C137.142857,151.832812 134.571429,154.40625 131.428571,154.40625 Z"/></g></g></svg>