<svg xmlns="http://www.w3.org/2000/svg" width="320" height="320" viewBox="0 0 320 320"><g fill="none" fill-rule="evenodd"><rect width="320" height="320"/><path fill="#FFF" d="M271.629531,36.2741233 C276.844346,39.0630367 280.936963,43.1556539 283.725877,48.3704687 C286.51479,53.5852836 288,58.7578634 288,73.0221632 L288,246.977837 C288,261.242137 286.51479,266.414716 283.725877,271.629531 C280.936963,276.844346 276.844346,280.936963 271.629531,283.725877 C266.414716,286.51479 261.242137,288 246.977837,288 L73.0221632,288 C58.7578634,288 53.5852836,286.51479 48.3704687,283.725877 C43.1556539,280.936963 39.0630367,276.844346 36.2741233,271.629531 C33.5250514,266.489214 32.0427006,261.389933 32.0009088,247.583624 L32,73.0221632 C32,58.7578634 33.4852098,53.5852836 36.2741233,48.3704687 C39.0630367,43.1556539 43.1556539,39.0630367 48.3704687,36.2741233 C53.5107862,33.5250514 58.6100667,32.0427006 72.4163758,32.0009088 L246.977837,32 C261.242137,32 266.414716,33.4852098 271.629531,36.2741233 Z M249.771512,40.0009593 L70.2284881,40.0009593 C59.9368822,40.0380405 56.1226726,41.1493596 52.2778516,43.2055924 C48.3667404,45.2972776 45.2972776,48.3667404 43.2055924,52.2778516 C41.1139073,56.1889627 40,60.0683975 40,70.7666224 L40.0009593,249.771512 C40.0380405,260.063118 41.1493596,263.877327 43.2055924,267.722148 C45.2972776,271.63326 48.3667404,274.702722 52.2778516,276.794408 C56.1889627,278.886093 60.0683975,280 70.7666224,280 L249.233378,280 C259.931602,280 263.811037,278.886093 267.722148,276.794408 C271.63326,274.702722 274.702722,271.63326 276.794408,267.722148 C278.886093,263.811037 280,259.931602 280,249.233378 L280,70.7666224 C280,60.0683975 278.886093,56.1889627 276.794408,52.2778516 C274.702722,48.3667404 271.63326,45.2972776 267.722148,43.2055924 C263.811037,41.1139073 259.931602,40 249.233378,40 Z" opacity=".2"/><path fill="#FFF" d="M70.7666224,40 L249.233378,40 C259.931602,40 263.811037,41.1139073 267.722148,43.2055924 C271.63326,45.2972776 274.702722,48.3667404 276.794408,52.2778516 C278.886093,56.1889627 280,60.0683975 280,70.7666224 L280,249.233378 C280,259.931602 278.886093,263.811037 276.794408,267.722148 C274.702722,271.63326 271.63326,274.702722 267.722148,276.794408 C263.811037,278.886093 259.931602,280 249.233378,280 L70.7666224,280 C60.0683975,280 56.1889627,278.886093 52.2778516,276.794408 C48.3667404,274.702722 45.2972776,271.63326 43.2055924,267.722148 C41.1139073,263.811037 40,259.931602 40,249.233378 L40,70.7666224 C40,60.0683975 41.1139073,56.1889627 43.2055924,52.2778516 C45.2972776,48.3667404 48.3667404,45.2972776 52.2778516,43.2055924 C56.1889627,41.1139073 60.0683975,40 70.7666224,40 Z" opacity=".1"/><g transform="translate(60 69)"><polygon fill="#FDB300" points="43.636 5.959 100 0 156.364 5.959 199.999 64.542 100 181 0 64.542"/><g transform="translate(0 64.542)"><polygon fill="#EA6C00" points="40.505 0 100 116.458 0 0"/><polygon fill="#EA6C00" points="159.495 0 100 116.458 199.999 0"/><polygon fill="#FDAD00" points="40.505 0 159.495 0 100 116.458"/></g><polygon fill="#FDD231" points="100 0 43.636 5.959 40.505 64.542"/><polygon fill="#FDD231" points="100 0 156.364 5.959 159.495 64.542"/><polygon fill="#FDAD00" points="200 64.542 156.363 5.959 159.495 64.542"/><polygon fill="#FDAD00" points="0 64.542 43.636 5.959 40.505 64.542"/><polygon fill="#FEEEB7" points="100 0 40.505 64.542 159.495 64.542"/></g></g></svg>